<svg id="visual" viewBox="0 0 960 540" width="960" height="540" xmlns="http://www.w3.org/2000/svg" xmlns:xlink="http://www.w3.org/1999/xlink" version="1.1"><rect x="0" y="0" width="960" height="540" fill="#C62368"></rect><defs><linearGradient id="grad1_0" x1="43.8%" y1="0%" x2="100%" y2="100%"><stop offset="14.444444444444446%" stop-color="#c62368" stop-opacity="1"></stop><stop offset="85.55555555555554%" stop-color="#c62368" stop-opacity="1"></stop></linearGradient></defs><defs><linearGradient id="grad2_0" x1="0%" y1="0%" x2="56.3%" y2="100%"><stop offset="14.444444444444446%" stop-color="#c62368" stop-opacity="1"></stop><stop offset="85.55555555555554%" stop-color="#c62368" stop-opacity="1"></stop></linearGradient></defs><g transform="translate(960, 0)"><path d="M0 243C-40.8 234.1 -81.6 225.3 -119 206.1C-156.4 187 -190.3 157.6 -210.4 121.5C-230.5 85.4 -236.8 42.7 -243 0L0 0Z" fill="#ffffff"></path></g><g transform="translate(0, 540)"><path d="M0 -243C35.5 -224.9 70.9 -206.8 109 -188.8C147.1 -170.8 187.7 -152.9 210.4 -121.5C233.2 -90.1 238.1 -45 243 0L0 0Z" fill="#ffffff"></path></g></svg>